# xmcd
#
# Track frame offsets:
# 150
# 22230
# 38971
# 55414
# 75022
#
# Disc length: 1174 seconds
#
# Revision: 0
# Processed by: cddbd v1.5.2PL0 Copyright (c) Steve Scherf et al.
# Submitted via: Audion 3.0.2 (http://www.panic.com/audion/)
#
DISCID=35049405
DTITLE=Hipshot - Unplugged
DYEAR=1900
DGENRE=
TTITLE0=So Damn Good
TTITLE1=Either Way I Get You Back
TTITLE2=Say What You Will
TTITLE3=Cut Me (I'll Bleed Like Any Man)
TTITLE4=Next Big Mistake
EXTD=
EXTT0=
EXTT1=
EXTT2=
EXTT3=
EXTT4=
PLAYORDER=
